<svg id="Layer_1" data-name="Layer 1" xmlns="http://www.w3.org/2000/svg" xmlns:xlink="http://www.w3.org/1999/xlink" width="400" height="150" viewBox="0 0 400 150">
  <defs>
    <style>
      .cls-1 {
        fill: #ba1700;
      }

      .cls-2 {
        fill: #e62c0c;
      }

      .cls-3 {
        fill: #00baff;
      }

      .cls-4 {
        fill: url(#Sky);
      }

      .cls-5, .cls-6 {
        font-size: 72px;
        stroke: #8770e8;
        stroke-miterlimit: 10;
        font-family: CooperBlack, Cooper Black;
      }

      .cls-5 {
        fill: #a82a00;
      }

      .cls-6 {
        fill: #f02a00;
      }
    </style>
    <linearGradient id="Sky" x1="178" y1="64" x2="370" y2="64" gradientUnits="userSpaceOnUse">
      <stop offset="0" stop-color="#cce0f4"/>
      <stop offset="0.06" stop-color="#c3dcf2"/>
      <stop offset="0.17" stop-color="#a9d2ee"/>
      <stop offset="0.31" stop-color="#80c2e7"/>
      <stop offset="0.46" stop-color="#47acde"/>
      <stop offset="0.57" stop-color="#1e9cd7"/>
      <stop offset="0.87" stop-color="#0075be"/>
      <stop offset="0.99" stop-color="#005b97"/>
    </linearGradient>
  </defs>
  <g>
    <rect class="cls-1" x="34" y="15" width="340" height="120" rx="54.21"/>
    <rect class="cls-2" x="30" y="5" width="340" height="120" rx="54.21"/>
    <g>
      <rect class="cls-3" x="178" y="5" width="192" height="118" rx="54.21"/>
      <path class="cls-4" d="M315.79,6A53.27,53.27,0,0,1,369,59.21v9.58A53.27,53.27,0,0,1,315.79,122H232.21A53.27,53.27,0,0,1,179,68.79V59.21A53.27,53.27,0,0,1,232.21,6h83.58m0-1H232.21A54.21,54.21,0,0,0,178,59.21v9.58A54.21,54.21,0,0,0,232.21,123h83.58A54.21,54.21,0,0,0,370,68.79V59.21A54.21,54.21,0,0,0,315.79,5Z"/>
    </g>
    <text class="cls-5" transform="translate(198.39 91.22)">OFF</text>
    <text class="cls-6" transform="translate(193.39 86.22)">OFF</text>
  </g>
</svg>
