<svg id="Layer_1" data-name="Layer 1" xmlns="http://www.w3.org/2000/svg" width="150" height="100" viewBox="0 0 150 100">
  <defs>
    <style>
      .cls-1 {
        fill: #fff;
      }
    </style>
  </defs>
  <circle cx="74.5" cy="45.5" r="29"/>
  <path d="M77.7,16.29l9.84-7.2a6.26,6.26,0,0,1,9.93,5.72L96.15,26.94a6.26,6.26,0,0,0,3.69,6.41L111,38.27a6.26,6.26,0,0,1,0,11.46L99.84,54.65a6.26,6.26,0,0,0-3.69,6.41l1.32,12.13a6.26,6.26,0,0,1-9.93,5.72l-9.84-7.2a6.27,6.27,0,0,0-7.4,0l-9.84,7.2a6.26,6.26,0,0,1-9.93-5.72l1.32-12.13a6.26,6.26,0,0,0-3.69-6.41L37,49.73a6.26,6.26,0,0,1,0-11.46l11.17-4.92a6.26,6.26,0,0,0,3.69-6.41L50.53,14.81a6.26,6.26,0,0,1,9.93-5.72l9.84,7.2A6.27,6.27,0,0,0,77.7,16.29Z"/>
  <circle class="cls-1" cx="75" cy="46" r="13.5"/>
</svg>
