<svg id="Layer_1" data-name="Layer 1" xmlns="http://www.w3.org/2000/svg" width="100" height="100" viewBox="0 0 100 100">
  <defs>
    <style>
      .cls-1 {
        fill: none;
        stroke: #000;
        stroke-miterlimit: 10;
        stroke-width: 3px;
      }
    </style>
  </defs>
  <path d="M54.27,26.39,26.74,40.45a6.68,6.68,0,0,0-.49,11.62l27,16.84A6.68,6.68,0,0,0,63.5,63.35L64,32.44A6.68,6.68,0,0,0,54.27,26.39Z"/>
  <rect x="15.5" y="29" width="22" height="37" rx="11"/>
  <path class="cls-1" d="M71.68,34a52.63,52.63,0,0,1-.36,27"/>
  <path class="cls-1" d="M76,28.37C89,48,74,67.32,74,67.32"/>
  <path d="M16,7.5C22.35,13.06,28.34,19,34.2,25S45.77,37.09,51.36,43.33,62.42,55.94,67.7,62.45,78.19,75.56,83,82.5c-6.36-5.56-12.35-11.44-18.2-17.45S53.22,52.91,47.64,46.67s-11-12.61-16.34-19.13S20.81,14.44,16,7.5Z"/>
  <path d="M83,7.5c-4.81,6.94-10,13.55-15.3,20S56.94,40.41,51.36,46.67,40.08,59.06,34.2,65.05,22.36,76.94,16,82.5c4.81-6.94,10-13.56,15.3-20S42.05,49.59,47.64,43.33,58.92,30.94,64.8,25,76.65,13.06,83,7.5Z"/>
</svg>
